<svg t="1725696652685" class="icon" viewBox="0 0 1024 1024" version="1.1" xmlns="http://www.w3.org/2000/svg" p-id="1456" width="200" height="200"><path d="M810.538667 256v249.088a262.613333 262.613333 0 0 1-65.664 184.064 278.357333 278.357333 0 0 1-173.226667 89.514667v-107.477334c42.666667-14.08 71.808-34.986667 87.466667-62.677333 15.786667-27.690667 23.552-61.610667 23.552-101.76h-111.018667V256h238.890667z m-358.314667 0v249.088a261.546667 261.546667 0 0 1-65.578667 184.064 273.152 273.152 0 0 1-76.544 59.434667A278.741333 278.741333 0 0 1 213.333333 778.666667v-107.477334c42.666667-14.08 71.808-34.986667 87.466667-62.677333 15.786667-27.690667 23.552-61.610667 23.552-101.76H213.333333V256h238.890667z" p-id="1457"></path></svg>